<svg id="Layer_1" data-name="Layer 1" xmlns="http://www.w3.org/2000/svg" viewBox="0 0 277.5 299.43"><defs><style>.cls-1{fill:#21409a;}.cls-2{fill:#b0b4b7;}.cls-3{fill:#6a6e6f;}</style></defs><title>catalogicon-lanbox</title><path class="cls-1" d="M296.49,162.79V2.5L192,107A329.38,329.38,0,0,1,296.49,162.79Z" transform="translate(-20.47 -2.5)"/><path class="cls-1" d="M275.9,180.81a302.06,302.06,0,0,0-105.57-52.14l-22.27,22.27A276.65,276.65,0,0,1,257.3,200Z" transform="translate(-20.47 -2.5)"/><path class="cls-1" d="M235.22,217.18a249.88,249.88,0,0,0-110.49-42.92l-25,25a232.44,232.44,0,0,1,80.52,18Z" transform="translate(-20.47 -2.5)"/><polygon class="cls-1" points="276.02 194.6 276.02 214.68 256.33 214.68 276.02 194.6"/><polygon class="cls-1" points="106.05 243.09 106.05 275.89 73.9 275.89 106.05 243.09"/><polygon class="cls-2" points="277.5 219.33 221.81 219.33 221.81 225.65 246.49 225.65 246.49 275.89 252.81 275.89 252.81 225.65 277.5 225.65 277.5 219.33"/><polygon class="cls-2" points="0.12 275.89 8.76 275.89 50.73 235.94 50.73 275.89 57.06 275.89 57.06 220.21 0.12 275.89"/><polygon class="cls-2" points="58.93 275.89 67.58 275.89 110.74 234.79 110.74 275.89 117.07 275.89 117.07 219.33 58.93 275.89"/><polygon class="cls-2" points="209.74 224.77 209.74 224.77 166.72 261.81 166.72 219.33 160.4 219.33 160.4 244.89 121.95 244.89 121.95 251.21 160.4 251.21 160.4 275.89 209.74 233.84 209.74 275.89 216.07 275.89 216.07 219.33 209.74 224.77"/><path class="cls-3" d="M22.48,295.66l7.92-12h2v14.86h-2v-12l-7.92,12h-2V283.7h2Z" transform="translate(-20.47 -2.5)"/><path class="cls-3" d="M53.43,291.57v7h-2V283.7h2v6.18h7.48V283.7h2v14.86h-2v-7Z" transform="translate(-20.47 -2.5)"/><path class="cls-3" d="M85.25,285.38H80.42V283.7H92.08v1.68H87.25v13.18h-2Z" transform="translate(-20.47 -2.5)"/><path class="cls-3" d="M111.59,290.05h7.8v1.68h-7.8v5.15h8.84v1.68H109.59V283.7h10.6v1.68h-8.6Z" transform="translate(-20.47 -2.5)"/><path class="cls-3" d="M140,285.38v13.18h-2V283.7h9.48v1.68Z" transform="translate(-20.47 -2.5)"/><path class="cls-3" d="M165,283.7h6.05q5.05,0,5,4.27a6.25,6.25,0,0,1-.25,1.84,3.76,3.76,0,0,1-.85,1.47,4.18,4.18,0,0,1-1.62,1,7.64,7.64,0,0,1-2.5.36H167v5.92h-2Zm2,1.68V291h3.65a3.61,3.61,0,0,0,2.63-.78,3,3,0,0,0,.77-2.17,2.25,2.25,0,0,0-.88-2,4.42,4.42,0,0,0-2.52-.61Z" transform="translate(-20.47 -2.5)"/><path class="cls-3" d="M195.68,294.72l-1.4,3.84h-2.15l5.63-14.86h2.15l5.63,14.86h-2.15L202,294.72Zm.54-1.68h5.21l-2.61-7.32Z" transform="translate(-20.47 -2.5)"/><path class="cls-3" d="M224.68,296.88h7.54V283.7h2v13.18h2.09l-.16,5.05h-1.74v-3.37H222.68V283.7h2Z" transform="translate(-20.47 -2.5)"/><path class="cls-3" d="M255.82,295.66l7.91-12h2v14.86h-2v-12l-7.91,12h-2V283.7h2Z" transform="translate(-20.47 -2.5)"/><path class="cls-3" d="M294.24,292.66h-3.38l-3.63,5.9h-2.46l4-6.1a7,7,0,0,1-1.2-.26,4.26,4.26,0,0,1-1.28-.64,3.56,3.56,0,0,1-1.1-1.3,4.48,4.48,0,0,1-.44-2.11,5.24,5.24,0,0,1,.45-2.2,3.6,3.6,0,0,1,1.61-1.62,6.34,6.34,0,0,1,3.06-.63h6.36v14.86h-2Zm0-7.28h-4.18a3.15,3.15,0,0,0-2.56.86,3,3,0,0,0-.69,1.93,2.7,2.7,0,0,0,.79,2,3.86,3.86,0,0,0,2.73.78h3.91Z" transform="translate(-20.47 -2.5)"/></svg>